<svg width="44" height="44" viewBox="0 0 44 44" fill="none" xmlns="http://www.w3.org/2000/svg">
<circle cx="22" cy="22" r="22" fill="url(#paint0_linear)"/>
<path fill-rule="evenodd" clip-rule="evenodd" d="M11.4589 11.6667H32.5414C33.1621 11.6667 33.6993 11.8861 34.153 12.3245C34.6062 12.7634 34.8332 13.2904 34.8332 13.9064C34.8332 14.6435 34.599 15.3481 34.1319 16.0197C33.6639 16.6914 33.0816 17.2655 32.3846 17.7413C30.0672 19.3131 28.3185 20.4998 27.1311 21.3061C26.4785 21.7489 25.9931 22.0787 25.6817 22.2905C25.6355 22.3222 25.5634 22.3723 25.4675 22.4396C25.3643 22.5117 25.2337 22.6037 25.0729 22.7174C24.7625 22.9368 24.5048 23.114 24.2994 23.2495C24.0938 23.3846 23.8457 23.5363 23.5545 23.7043C23.2631 23.8724 22.9887 23.9983 22.7309 24.0823C22.4731 24.1661 22.2344 24.2082 22.0148 24.2082H22.0006H21.9863C21.7667 24.2082 21.5281 24.1661 21.2702 24.0823C21.0125 23.9983 20.7378 23.8721 20.4466 23.7043C20.1552 23.5363 19.9068 23.385 19.7017 23.2495C19.4964 23.114 19.2386 22.9368 18.9284 22.7174C18.7672 22.6037 18.6366 22.5118 18.5334 22.4393L18.5233 22.4323C18.4325 22.3688 18.3638 22.3208 18.3195 22.2905C17.9197 22.0157 17.4354 21.6846 16.8739 21.3022C16.2152 20.8532 15.4486 20.3329 14.5671 19.7359C12.9342 18.6303 11.9554 17.9654 11.6308 17.7413C11.0388 17.3494 10.4802 16.8107 9.95513 16.1248C9.43011 15.4387 9.16748 14.8018 9.16748 14.214C9.16748 13.4864 9.36539 12.8796 9.76184 12.3944C10.158 11.9095 10.7234 11.6667 11.4589 11.6667ZM33.4002 19.2392C31.4494 20.5296 29.7913 21.6405 28.4258 22.5725L34.8324 28.8337V18.0213C34.4217 18.4695 33.9443 18.8752 33.4002 19.2392ZM9.1665 18.0214C9.58659 18.4788 10.0691 18.8848 10.6132 19.2393C12.6414 20.5863 14.2935 21.6952 15.5757 22.5701L9.1665 28.8335V18.0214ZM34.0421 30.8208C33.6172 31.1883 33.1173 31.3745 32.5403 31.3745H11.4578C10.8809 31.3745 10.3807 31.1883 9.95575 30.8208L17.2287 23.7122C17.4107 23.8399 17.5789 23.9592 17.7306 24.0679C18.2751 24.4597 18.7165 24.7654 19.0556 24.9845C19.3944 25.2041 19.8455 25.4279 20.4091 25.6564C20.9726 25.8853 21.4976 25.9993 21.9847 25.9993H21.9989H22.0132C22.5002 25.9993 23.0253 25.8852 23.5888 25.6564C24.152 25.4279 24.6032 25.2041 24.9423 24.9845C25.2814 24.7654 25.7231 24.4597 26.2672 24.0679C26.427 23.955 26.5961 23.8362 26.7705 23.7141L34.0421 30.8208Z" fill="white"/>
<defs>
<linearGradient id="paint0_linear" x1="22" y1="0" x2="22" y2="44" gradientUnits="userSpaceOnUse">
<stop stop-color="#FECF72"/>
<stop offset="1" stop-color="#EF9F00"/>
</linearGradient>
</defs>
</svg>